<svg xmlns="http://www.w3.org/2000/svg" viewBox="0 0 425.199 172.219"><path d="M47.765 115.99l-1.879-9.629-1.174-3.289-3.053-1.879s-3.992-.703-4.933-.47c-.939.234-4.227 2.113-4.227 2.113-.939.472-4.229 21.605-4.229 21.605l2.818 10.334s2.818 4.697 3.053 6.105 7.28.233 7.28.233l4.932-7.045 3.054-5.871-1.642-12.2zm-7.957 9.43c-1.802 0-3.263-2.656-3.263-5.935s1.461-5.935 3.263-5.935 3.263 2.656 3.263 5.935-1.462 5.94-3.263 5.94zM219.44 134.07s-.233-11.978-.233-13.62c0-1.645-2.584-6.105-2.584-6.105l-3.992-3.289s-3.992-2.348-5.167-3.287-2.349-.469-5.871-.234-6.106 3.521-6.106 3.521-2.817 7.516-3.991 9.865c-1.175 2.348-.235 16.203 0 16.908.234.705 2.817 9.393 5.167 13.62 2.349 4.228 8.454 3.992 11.037 5.166 2.583 1.175 9.395-9.629 10.568-10.803 1.174-1.175 1.645-7.045 1.645-7.045l-.48-4.71zm-14.38 2.62a6.526 6.526 0 116.527-6.527c0 3.61-2.92 6.53-6.53 6.53z" fill="#1A171B"/><path d="M274.14 64.16l-.43-.635c-1.828-.697-5.869-1.708-10.031.677-.152.457-.305.91-.459 1.365l.244-.003 1.195-1.253c3.227-1.064 6.188-.163 9.483.098v-.249zm4.14-14.602c-6.403-.226-12.812-.451-19.219-.681-5.887 1.596-25.596-1.493-29.16 1.204l.004.246c10.2 1.563 23.119-.595 35.269.671 3.69.385 10.635 1.433 13.37-.213l-.004-.246c-.09-.328-.18-.653-.26-.981zm7.9 38.314c-2.504 2.979-4.113 3.41-7.69 5.543l.004.244c3.96.552 7.6-1.75 7.69-5.787zm-2.57 6.69l-.004-.244c-8.707 2.41-11.075 1.662-17.069-3.18-1.65-1.33-3.526-2.525-3.972-5.113 2.064.604 3.218 2.589 4.684 3.871-1.442-5.191-5.649-8.418-6.067-14.441-1.658-.595-2.758-1.543-3.692-2.897-2.073 1.965.299 8.715 1.143 10.576 2.61 5.749 17.03 22.696 24.98 11.428zm106.9-29.402c-.49 1.6.277 3.993 1.358 5.878l.267-.754.061-.02c-.336-3.315.387-10.324 13.867-5.598.893 1.468 1.981 3.086 2.936 4.637.703.741 1.302 1.541 1.5 2.656 1.248 2.554 1.396 4.442-1.576 4.321-4.198-.17-9.421 1.281-11.739 2.004-.043.271-.084.545-.128.816l-.244.003a46 46 0 01-.104-.664l-.729.238-.297-.194.407 1.125c2.714.447 3.271-.527 5.576-1.074 1.018-.242 8.646 2.222 9.527 2.807l.061 3.695c.721-.506 1.441-1.011 2.165-1.514-.117-1.741-.07-3.09.663-3.954l.246-.006c.084.166.164.327.251.492.489 2.224.337 4.468-.422 6.263.979.917-.089 2.719-.089 2.719s-3.863 3.67-5.605 3.928l.004.246-.487.01c-4.534 1.666-14.18-7.093-14.763-10.856l.972-.015c1.23.804 2.459 1.605 3.688 2.405-.271-.894-.209-.721-.749-1.22-1.146-2.875-3.474-3.985-4.017-7.82l-3.656-.683.021 1.233c2.957 7.365 11.102 22.682 21.678 17.644l-.252-.488c-.774-.189-1.02-.219-1.469-.715 3.127-.511 5.48-2.681 6.782-5.646 1.947-10.343-6.52-20.499-6.52-20.499l.064-.106c-1.811-1.422-3.854-2.55-6.176-3.713-2.011-.809-5.488-1.442-7.676-1.787-.07.019-.136.042-.206.061-9.715-1.875-29.838-5.282-53.655-6.568 5.491.899 38.694 4.216 51.76 7.286-1.56.784-2.74 1.943-3.29 3.427zm-124.4 75.27c.082.164.168.328.25.492 4.021 1.258 9 3.076 14.373 1.74l-.491-.238c-2.535-2.709-7.828-.824-11.703-2.279-.82.1-1.62.19-2.43.29zM187.1 3.94c.75 7.735-.622 17.586 3.295 23.85l.242-.003c2.255-1.104 4.504-2.208 6.757-3.312.25.327.498.648.745.975-.055 1.884 2.235 4.372 3.027 6.851l-9.48.152s-.749 11.66 3.786 14.228c-13.106 1.125-27.682 2.482-32.562 3.334l-.031-.009c-2.983.209-4.912-.064-6.159-.451-.046-.019-.09-.033-.134-.053a8.242 8.242 0 01-2.019-1.27l.01.017c-.051-.042-.104-.077-.15-.121.081.094.172.188.268.283.11.132.306.321.63.528 1.23.888 3.306 1.627 7.005 1.444 8.845-.207 36.513-2.812 46.658-3.038.659-.015 1.269-.031 1.852-.05 6.39-.02 13.664-.114 17.205-.165.453.108.992.083 1.588-.024l.59-.009-.033-.105c1.515-.356 3.277-1.038 4.75-1.181 7.056.134 14.109.268 21.164.405 2.508-.208 5.017-.409 7.525-.615 1.663.56.9 1.732 3.18 1.18 2.951-.71 6.424.793 8.741-.629.079-.248.155-.497.234-.743-.052-.191-.102-.384-.151-.573l-8.282.132-17.183-28.904c.373.167 1.549.725 3.353 1.87l1.286.712.218.288c5.276 3.655 14.098 11.282 23.329 25.858l-.689.013a.866.866 0 00.06.079 475.86 475.86 0 00-.695 2.229c.245.162.489.321.736.483 5.963-1.708 12.163 2.365 17.777 1.688l.084-.178c-2.157-.569-6.785-2.809-13.964-11.381a840.59 840.59 0 00-8.631-10.117l-4.408-4.51c-1.618-1.981-3.434-4.223-5.354-6.417l-.022.001s-6.105-6.105-18.318-11.116c-12.213-4.853-53.701-4.071-53.701-4.071-.017-.009-.031-.027-.048-.041-16.261.591-33.92 2.415-42.167 7.234l.021.039c5.69-1.965 31.13-8.238 38.05-4.787zm51.26 40.379c2.982-1.816 6.468-2.677 9.929-2.162 1.865.279 3.547.93 5 1.866l-14.93.296zm-34.18-23.503l2.191-.206 1.376 1.517 8.608-.136 1.076-4.087c2.193-.44 18.649-3.651 27.521-2.556.001-.001.001-.003.003-.003l16.498 28.517-1.779.035c-.042.035-.094.066-.14.099-2.495-2.864-5.999-4.891-10.215-5.521-6.373-.951-12.783 1.493-17.278 5.968l-14.648.292-1.906-3.051-2.724-1.327.653-1.38-6.655-14.951-2.895-1.666.32-1.544zm142.1 69.547l.004.245.996 1.466c2.086.543 4.979 3.631 6.838 1.858-.334-.567-.668-1.138-1-1.707-1.604-.429-3.594-1.088-4.651-2.146-.73.096-1.46.188-2.19.284zm-65.72-4.132l.977-.015c.98-1.761 1.382-4.827 2.815-6.205l.495.484 1.242 1.706c-.273-7.992-4.438-13.77-10.707-15.846l.013.739c.33.406.66.811.991 1.215 4.469-.079 5.807 6.647 5.782 11.982-3.257-.039-5.997-.231-9.247-.591-.719.585-1.439 1.172-2.161 1.758 2.065 2.141 6.013 1.277 9.024 1.829.27.982.52 1.964.78 2.944zm130.69 52.876c-3.903 2.026-8.921 2.979-14.035 4.168l-.236.496.021 1.231c4.869-.166 10.202-2.772 14.763-4.424l-.02-1.231c-.16-.09-.33-.17-.49-.25zM62.93 54.285c.267-.002.527-.002.812-.011 1.978-.022 3.886-.046 5.708-.068 1.587-.075 3.16-.156 4.644-.176l2.534.086c3.224-.042 5.898-.081 7.834-.108l.025.051 38.531-.625c.029.027.061.053.089.081h2.768c-.058-.017-.12-.031-.174-.049l3.582.049 1.248-9.62c.09-.046.141-.091.141-.135 0-.258.063-1.21.097-1.701.012-.005.024-.009.035-.017-.189-5.286 2.603-27.853 4.381-30.377l.498.732c.822 2.453-.668 10.628-2.042 18.05l-1.559 11.878s-.184.872-.057 1.061l-1.099 9.777 17.731-.235-.434-1.059-5.719-23.319c-1.697-6.297-.714-14.274-3.712-19.16-1.783-.136-3.568-.27-5.354-.407-17.733-.017-30.16 5.224-43.125 9.234l-.232 1.974c-.018 4.978-.837 10.456-1.815 15.487l-2.032 17.169h-1.276l3.904-33.575a2.855 2.855 0 00-.798.009 81.29 81.29 0 00-6.038 3.438c-1.022.782-1.93 1.501-2.582 1.906a119.27 119.27 0 00-3.407 2.211C65.605 34.69 59.066 43.315 56.22 47.534c-.674 1.401-1.177 3.256-.17 4.669 1.602 1.39 4.061 1.926 6.862 2.082zm73.426-27.958c.516-2.106.659-7.777 1.1-9.526l1.703-.025c.263 2.954 3.548 9.698 1.884 11.551l-4.866-.169.19-1.831zm-39.034-5.996c16.086-7.7 34.392-3.499 34.392-3.499l-1.07 12.469-.769-.073-.005.017-.074-.024-14.498-1.347c-3.005 2.229-4.727 13.423-4.715 14.191-1.003.53-14.825-.534-15.976-1.156.849-1.683 2.482-18.392 2.702-20.578zm-5.924 5.16c-.002-.024-.006-.048-.007-.07l.021-.015c.499-3.238.865-5.421.865-5.421s.227-.048.484-.007c.343 9.474-.825 18.369-1.926 24.379-.204 2.237-.789 4.257-1.332 6.301a75.03 75.03 0 01-.363 1.409l-.49-.236c-.581-3.706 1.5-18.251 2.748-26.34zM66.642 40.458c1.486-1.431 8.379-6.464 13.644-10.251 2.094-1.708 4.188-3.291 6.248-4.464-.162 1.738-1.64 15.964-1.64 15.964s-16.584 1.24-18.547-.859l-.004-.246c.097-.041.198-.098.299-.144zM4.95 109.827c-.179.035-.36.069-.54.102.427 1.682 2.137 5.137 8.838 7.246.259-.215.517-.426.771-.639-4.906-.67-6.105-4.07-9.069-6.71zm81.542-40.716l1.248 1.95.485-.007c.776-1.114 1.292-1.569 1.402-3.473l-.25-.488c-.571-.071-1.138-.145-1.707-.218-.158.329-.312.661-.472.993-3.167-.703-5.802-.622-7.817-2.339-1.631.108-2.938.734-3.618 1.782-.995 2.18.896 4.965 1.567 6.873l2.675-.042c-.172-2.15-.101-3.693.89-5.187 1.865.051 3.732.103 5.597.156zm-8.502.38l-.972.263c.297-1.035.121-.776.954-1.246l.488.239.011.737-.481.007zm62.886-67.015c.53-.005 1.055-.019 1.594-.02.01 0-.56-.006-1.59.02zM37.946 60.044l1.38-.022c.132-.18.264-.354.396-.534 2.006-1.234 4.341-4.297 6.895-6.845-1.346.569-3.169 2.055-4.801 3.546-1.548.985-3.114 2.108-3.87 3.855zm-7.24 6.128c-2.662 2.035-5.48 3.132-5.48 3.132s10.333-2.662 8.455-7.045c-1.879-4.385-7.201-9.238-6.73-11.116.193-.779.286-1.289.723-1.82 3.442-3.067 19.683-3.844 22.025-4.15-1.875 0-19.194 1.104-19.194 1.104l-.335.141c-2.902.478-6.851 1.74-5.097 5.039 2.657 5.007 8.293 12.68 5.633 14.715zm187.51 60.225h.098l-.002-.047c-.03.02-.06.04-.1.05zm-77.34-123.92c-20.468.229-35.481 4.801-45.03 8.99l.002-.011c-.49.2-.978.407-1.466.618v.05c-.352.163-.686.321-1.022.484-.011-.026-.02-.05-.032-.072-.195.086-.39.174-.583.266l-.079.114h.048c-5.429 2.651-8.506 4.897-9.208 5.398 23.49-14.11 50.61-15.674 57.37-15.837zm278.01 97.328l-.472.992-.008-.49c-.547-1.283-.421-2.209-1.505-2.934l-18.687 2.268.004.246c.912 2.457 4.293 6.307 3.072 9.807-.157.252-.316.5-.474.748l-58.555 2.9c-7.373.281-14.744.564-22.116.844-1.823-.65-2.026-5.252-3.024-6.852a9415.15 9415.15 0 01-5.438-5.576c-12.887-.045-25.776-.088-38.661-.127-6.748-.945-18.157-2.18-24.564-.35-1.08 3.467-2.16 6.932-3.238 10.399l-14.113-.517c-7.174-16.428-11.698-29.165-32.119-32.014-6.528-.91-12.537 1.651-15.976 4.689-5.218 4.61-6.576 10.668-8.328 17.68h-.002s-.146.42-.322 1.799c-.114.891-.367 3.178-.536 4.699.062.111.099.207.09.275-.142.938-.119 2.19-.119 2.19l-1.18 10.106c-.053.742-.204 3.265-.204 3.265l.026 2.634-.007.002c.004 3.743.007 7.487.009 11.233l-.482.254-103-9.207c-3.651-2.239-9.245-6.894-9.408-12.729a1.57 1.57 0 01-.167-.125c-.339-.33-.418-.928-.402-1.5l-.113-.418-2.947-11.08.02-.168a11.413 11.413 0 01-.135-.644l-.041-.047.028-.021c-2.301-3.847-5.704-14.453-7.708-17.023-6.783-8.681-21.934-7.153-27.453 1.67-2.059 3.289-1.644 9.054-3.938 12.381-2.125-1.217-5.396-1.348-8.296-1.837-.729-4.153-.092-8.487-1.89-11.798-.808.097-1.617.19-2.427.284-.304 1.322-.604 2.639-.908 3.958l-.74-.727.121 7.635.242-.004c.763-.428.293-.514.978.232-.153.94-.153.994.269 1.721 3.227.584 6.432.998 10.189 1.043l.003-.004s.258-.008.626.006c.29.002.574.006.87 0 .022.035.044.064.066.098 1.354.229 2.833.951 1.103 3.129l-.077 4.385c-.021-.022-.056-.049-.084-.073a.58.58 0 01.087.084l.051 3.202c.981.537 1.965.791 2.675 1.593.031-.022.049-.041.049-.041l.939.472s-2.035 37.887 13.465 42.741c.078.019.151.037.229.058 9.226 1.453 27.641 1.334 31.957-1.742 3.501-2.492 5.961-7.553 7.587-11.748a1.294 1.294 0 01.01-.498c.716-2.834 2.172-6.709 2.172-6.709l17.535 1.918c1.051-.088 2.06-.08 2.821.049l.003.262 64.034 6.998c.494.025.993.053 1.488.076-.013.029-.024.057-.039.082l16.362 1.789.466-.311c6.418 24.108 26.979 26.692 26.979 26.692l2.701.16c.818-.029 1.659-.058 2.532-.074 33.594-.705 38.992-22.351 38.992-22.351l.543.445c4.748.258 49.771 2.623 72.483 2.137.016.015.027.031.039.047.027.064.063.123.091.188l6.915-.757s6.734 15.5 29.748 12.213c20.363-2.909 25.894-15.127 27.547-18.663-14.39.805-28.782 1.606-43.171 2.407-9.484-.179-18.973-.354-28.458-.532-4.781-.005-9.565-.013-14.35-.019-11.03-.647-22.063-1.296-33.095-1.938-10.504-1.511-25.332.541-30.021-6.914-1.65-2.629-1.883-6-2.82-9.32-.5-1.76-1.626-4.26-1.853-6.453l-.053-.025-1.351-6.277.155-.041c-.224-1.127-.28-2.199.168-3.174 10.562-.461 24.539.795 35.296 2.396l40.609.344 33.793-.537 31.104-1.233 11.184-.178c7.609-.531 15.223-1.064 22.831-1.597 4.016-.694 8.11-.106 11.159-1.651.24-1.61 2.43-7.67.57-10.863zm-380.08 46.503c-7.702.121-13.915-11.178-14.146-25.729-.231-14.554 5.62-26.045 13.319-26.166 7.701-.123 13.915 11.18 14.146 25.729.232 14.56-5.618 26.05-13.319 26.17zm166.01 15.4c-10.266.162-18.836-13.299-19.102-30.013a48.275 48.275 0 01.479-7.646 30.091 30.091 0 013.134-10.963c3.297-7.203 8.548-11.899 14.524-11.994 3.878-.061 7.516 1.82 10.555 5.093 5.001 5.383 8.379 14.521 8.544 24.92.28 16.71-7.85 30.43-18.12 30.6zm18.79-102.61c6.576.47 38.75 2.348 38.75 2.348s-15.5-2.818-38.75-2.348zm118.59 6.575s21.842 13.855 31.233 22.309c-1.63-3.287-14.32-12.68-31.23-22.309z" fill="#1A171B"/><g fill="#FDCC00"><path d="M248.54 101.3c6.405-1.832 17.813-.596 24.563.348 12.884.041 25.774.084 38.662.127l5.438 5.578c.998 1.6 1.201 6.201 3.025 6.85 7.372-.277 14.744-.561 22.115-.844l58.556-2.9c.155-.248.315-.494.474-.746 1.221-3.5-2.161-7.35-3.073-9.807l-.003-.246 18.687-2.268s-.475-3.979-1.382-9.014c-1.276 2.129-3.185 3.67-5.585 4.221-.145.066-.289.141-.432.201.396.406.661.459 1.387.637l.25.488c-6.604 3.146-12.259-1.646-16.295-7.481a34.639 34.639 0 01-2.857-4.445 9.62 9.62 0 01-.661-1.576 57.805 57.805 0 01-1.862-4.141l-.021-1.233 1.238.231a22.51 22.51 0 01.744-5.057c-.834-1.719-1.345-3.675-.925-5.047.552-1.484 1.736-2.644 3.295-3.427-13.065-3.069-46.27-6.387-51.76-7.286.957.051 1.908.108 2.854.165-23.239-2.512-45.974-4.711-49.357-5.328-5.613.677-11.812-3.396-17.775-1.688l-.738-.483c.164-.528.328-1.055.494-1.583-.576.018-1.176.035-1.791.051l-.18.571c-2.317 1.422-5.791-.081-8.74.629-2.148.52-1.598-.492-2.918-1.077a12.285 12.285 0 01-.59-.044c-.049-.005-.116-.013-.179-.018-2.341.191-4.682.38-7.021.574-7.055-.138-14.108-.271-21.163-.405-1.474.143-3.236.826-4.75 1.181l.033.105-.592.009c-.595.106-1.134.132-1.587.024-3.541.052-10.815.145-17.205.165-.583.019-1.192.035-1.852.05-10.146.226-37.812 2.831-46.659 3.038-3.698.184-5.773-.556-7.005-1.444-.083-.053-.136-.101-.203-.15-.029-.024-.062-.044-.093-.07a2.559 2.559 0 01-.334-.308 5.343 5.343 0 01-.268-.283c.047.044.101.079.149.121l-.009-.017s-14.604-34.38-5.543-39.521l-.014-.024c8.247-4.82 25.905-6.644 42.167-7.234.017.013.03.031.048.04 0 0 41.487-.782 53.702 4.071 5.229 2.146 9.329 4.491 12.319 6.473a217.66 217.66 0 00-.991-.978c-12.39-12.049-51.22-13.161-113.8-8.61-24.422 1.776-41.424 6.766-53.665 12.918l-.243.123c-.232.118-.461.237-.689.356a91.175 91.175 0 00-4.368 2.462c.071-.051.176-.127.299-.213-15.492 9.137-22.181 20.015-27.64 26.774-6.979-.148-12.39.242-16.58.837 4.507-.272 9.188-.54 10.112-.54-2.342.306-18.583 1.083-22.024 4.15-.438.53-.528 1.041-.724 1.82-.47 1.878 4.854 6.731 6.731 11.116 1.493 3.482-4.72 5.877-7.337 6.713-3.182 1.888-7.605 4.2-12.922 7.372-3.771 2.249-6.279 5.603-7.938 9.186.34-.04.684-.078 1.022-.119 1.798 3.312 1.161 7.646 1.89 11.798 2.901.488 6.172.621 8.296 1.84 2.293-3.328 1.879-9.096 3.938-12.383 5.521-8.823 20.67-10.351 27.453-1.669 2.003 2.567 5.406 13.177 7.708 17.021l-.028.023.041.045c.026.174.104.52.211.965l10.126.562-.002-.035.235.013 3.828 11.165-.877-.025.012-.076-10.468-.652c.041.15.081.301.114.418-.017.572.062 1.168.402 1.498.037.037.103.082.167.127.163 5.834 5.757 10.486 9.408 12.727l103 9.207.481-.252c-.002-3.748-.005-7.492-.009-11.234l.007-.002-.026-2.633s.151-2.522.203-3.264l-5.835-.513v-10.048l7.014.453s-.022-1.252.119-2.193c.009-.068-.027-.162-.091-.275.17-1.521.423-3.807.536-4.699.177-1.377.323-1.797.323-1.797h.002c1.752-7.012 3.11-13.07 8.328-17.681 3.438-3.038 9.447-5.6 15.975-4.689 20.423 2.849 24.945 15.586 32.119 32.013 4.705.174 9.41.346 14.115.517 1.08-3.49 2.16-6.96 3.24-10.42zm100-11.2c1.06 1.057 3.049 1.715 4.653 2.145l1 1.707c-1.858 1.771-4.752-1.318-6.838-1.861-.334-.489-.665-.977-.997-1.465l-.003-.244c.73-.096 1.46-.189 2.19-.282zM39.8 59.506c-.132.18-.264.354-.396.534l-1.38.022c.757-1.747 2.323-2.87 3.87-3.854 1.631-1.492 3.455-2.978 4.8-3.547-2.553 2.547-4.888 5.61-6.894 6.845zm40.283 14.65l-2.675.044c-.672-1.908-2.562-4.693-1.567-6.873.681-1.048 1.987-1.673 3.618-1.782 2.016 1.717 4.65 1.637 7.817 2.339.159-.332.313-.664.472-.993.568.074 1.136.147 1.707.218l.25.488c-.11 1.904-.626 2.359-1.402 3.473l-.486.007-1.248-1.95-5.596-.158c-.991 1.493-1.062 3.036-.89 5.187zM63.007 54.303c-2.801-.156-5.26-.691-6.862-2.082-1.007-1.413-.504-3.268.169-4.669 2.849-4.218 9.387-12.843 19.818-20.698a120.704 120.704 0 013.407-2.211c.65-.405 1.56-1.125 2.582-1.906a81.29 81.29 0 016.038-3.438s1.261-.747 2.227-1.024l.004-.04c12.964-4.011 25.392-9.253 43.125-9.236 1.785.14 3.57.273 5.354.409 2.998 4.886 2.015 12.863 3.712 19.16 1.905 7.773 3.812 15.545 5.719 23.319l.433 1.059-17.73.235-1.645.352-2.352-.027-.002-.006-1.229-.016c.055.018.117.033.175.049h-2.768c-.028-.027-.061-.053-.089-.081l-38.532.625-.024-.051c-1.936.027-4.611.066-7.834.108-.845-.03-1.69-.057-2.534-.086-1.482.019-3.056.1-4.644.176-1.821.022-3.729.046-5.708.068-.288.009-.549.009-.815.011zm222.35 22.715c.463 1.604.746 3.339.811 5.201l-.479-.658c.13 2.548.161 4.895.014 6.958.182-.199.365-.406.557-.636a5.85 5.85 0 01-.812 2.894c-.56 3.427-1.854 5.748-4.418 6.421-8.153 5.241-19.981-8.896-22.317-14.05-.844-1.86-3.217-8.61-1.145-10.575.067.095.144.176.211.268.242-3.495 1.559-6.702 5.936-8.511l.037-.112c4.164-2.385 8.203-1.375 10.032-.677.121.182.244.362.367.542 4.76 1.587 10.26 5.387 11.21 12.935zm-55.38-26.677l-.004-.246c3.565-2.697 23.273.393 29.162-1.204 6.404.229 12.812.455 19.219.681.084.329.172.653.258.982l.005.246c-2.735 1.646-9.679.598-13.369.213-12.15-1.266-25.07.891-35.27-.672z"/><path d="M11.245 103.04l.032.002c.523.094.987.143 1.392.137 1.161.117 2.666.266 3.688.33 2.669-2.74 1.012-3.584-.48-3.836-.022-.033-.044-.062-.066-.098-.295.006-.58.002-.87 0-.369-.017-.626-.009-.626-.009l-.003.007c-3.758-.048-6.963-.462-10.189-1.046-.422-.728-.422-.778-.269-1.721-.685-.744-.215-.658-.978-.229l-.176.001a36.692 36.692 0 00-.183 4.481c2.648.241 6.17 1.504 8.646 1.961.026.01.06.02.082.02zM291.2 46.855c-2.017-1.542-4.383-3.708-6.962-6.264 2.78 3.004 5.09 4.971 6.96 6.264zM408.54 93.165c-.085.024-.169.043-.255.063l.256-.002v-.061zM19.679 111.95l-.049.041c-.71-.804-1.693-1.058-2.675-1.595l-.052-3.203c-.762-.981-8.894-2.032-13.863-2.59.637 2.403 1.614 4.383 2.786 6.013.846.866 1.573 1.776 2.344 2.622a18.28 18.28 0 004.702 3.066c.385.103.787.19 1.229.252-.073.062-.146.12-.219.18 3.389 1.337 6.197 1.429 6.197 1.429l.464.114c-.047-3.551.077-5.86.077-5.86l-.941-.47zM392.32 67.766c.51-1.275 1.127-2.438 1.831-3.402-1.12.903-1.63 2.167-1.83 3.402zM418.41 110.67c-3.05 1.547-7.145.957-11.161 1.652-7.607.532-15.221 1.063-22.83 1.598l-11.184.178-31.104 1.232-33.791.537-40.609-.343c-10.758-1.603-24.733-2.854-35.297-2.396-.582 1.263-.316 2.687.066 4.189 2.02 1.151 4.733.864 7.561 1.356 10.066 1.754 21.056.622 32.373 2.196 12.328 1.713 25.896.822 39.4.605 10.352-.166 21.198.363 30.618-1.227 13.125-.289 26.254-.58 39.376-.871 9.804-.402 19.604-.805 29.405-1.205 2.915-.52 8.667-2.535 10.423-2.137l.482-.008c.006 1.686-.253 1.955-.682 2.967-1.608.742-3.51.117-6.068.59-12.021 2.213-25.726-.146-39.122 1.604-12.231.443-24.465.884-36.695 1.324l-28.188 1.187c-6.056 1.063-14.234 1.158-20.176.321-7.375.035-14.753.068-22.125.104-11.533-1.696-24.392-2.606-35.078-3.879l-.242.002c-1.021 2.49.904 6.39 1.602 8.849.939 3.317 1.172 6.69 2.822 9.317 4.688 7.457 19.517 5.404 30.021 6.916 11.029.644 22.063 1.291 33.095 1.939 4.783.004 9.566.012 14.349.018l28.459.531c14.388-.799 28.781-1.604 43.171-2.406l-.195.418c3.783-.479 7.171-.955 9.979-1.397l-.011-.653.236-.498c5.115-1.188 10.132-2.14 14.035-4.166.163.078.326.16.492.237l.002.181c12.541-7.666 12.326-19.172 13.129-22.787.95-4.21-6.53-6.07-6.53-6.07zm-151.98 30.26c-.083-.162-.169-.326-.249-.492.808-.094 1.616-.186 2.428-.283 3.874 1.455 9.168-.43 11.703 2.277.165.082.328.16.492.24-5.37 1.33-10.34-.49-14.37-1.75zM28.135 67.931a23.375 23.375 0 002.651-1.741c.345-.265.545-.626.636-1.061-.583.872-1.71 1.78-3.287 2.802zM78.052 68.525c-.833.47-.657.211-.954 1.246l.971-.263.482-.007-.011-.737-.488-.239z"/></g><g fill="#149B2E"><path d="M16.353 103.6c-1.021-.063-2.525-.213-3.688-.33a7.59 7.59 0 01-1.392-.137l-.032-.003c-.022-.002-.056-.014-.081-.018-3.393-.627-8.758-2.773-11.134-1.721-.065.988-.128 1.975-.194 2.961 3.024.305 15.968 1.662 17.048 2.914l.077-4.328-.021-.004a6.3 6.3 0 01-.583.67zM80.517 104.44l-3.947-.249-4.99-.315-.502-.029v-.012l-4.797-.256.003.035-10.126-.562s2.58 10.262 2.853 10.951l10.467.652-.011.075.896.026 6.326.338 86.355 4.647 9.716.854s1.232-9.498 1.18-10.106l-7.252-.471.02-.133-8.399-.531-7.894-.499-2.171-.138.001.001-3.424-.216-.111-.008-6.454-.407-1.683-.107.001.001-5.739-.362-3.742-.237v.001l-19.726-1.246-1.896-.12-3.144-.198-.29-.019-20.388-1.287M421.76 116.03c-1.756-.397-7.509 1.619-10.425 2.138-9.801.399-19.602.803-29.403 1.207-13.122.289-26.252.58-39.377.871-9.42 1.588-20.268 1.061-30.617 1.225-13.508.217-27.074 1.109-39.4-.605-11.318-1.574-22.308-.443-32.374-2.195-2.824-.494-5.54-.205-7.562-1.356a21.682 21.682 0 01-.201-.862l-.194.01s1.096 5.479 1.252 5.949c.01.026.062.069.147.125-.074-.826-.02-1.609.259-2.285l.242-.002c10.688 1.271 23.545 2.182 35.077 3.879 7.373-.037 14.75-.072 22.125-.107 5.941.838 14.121.744 20.177-.32l28.188-1.188c12.229-.439 24.465-.881 36.695-1.322 13.397-1.752 27.102.607 39.122-1.605 2.56-.475 4.46.152 6.068-.592.428-1.01.688-1.279.682-2.967l-.49-.01zM220.51 126.45a19.648 19.648 0 00-.053-1.871c-.615-3.896-1.703-7.463-3.148-10.523-4.338-8.09-12.48-13.658-20.697-7.188-14.656 11.553-8.102 50.973 11.04 52.063 9.071-3.642 11.341-12.005 13.179-22.543a47.54 47.54 0 00-.112-9.892c-.07-.02-.14-.04-.21-.05zm-21.06-15.46c1.565-.939 5.479-3.916 4.696.625-.781 4.541-.626 6.889-1.251 7.045-.627.155-1.097-.625-1.097-.625l-3.288-4.386s-.62-1.72.94-2.66zm-2.97 22.07c-1.253.938-2.662 2.817-3.442 2.504-.784-.312-2.662-8.769.47-10.646l4.383 4.854c0 .02-.16 2.36-1.41 3.3zm7.67 20.52c-.781.155-6.731-3.445-6.262-4.697s3.914-5.637 5.167-5.793c-.01-.01 1.87 10.33 1.09 10.49zm.23-16.77c-.405-.074-.814-.148-1.22-.225-4.251-2.818-2.52-8.767.059-11.584l1.701-.027c.741.729 1.481 1.455 2.224 2.182 1.49 4.07.2 8.03-2.76 9.66zm9.63-21.91s4.385 5.949 3.602 7.201c-.781 1.254-4.07 4.229-5.479 2.192-1.41-2.03 1.1-7.98 1.88-9.39zm.94 33.82c-1.098.156-4.073-8.143-2.977-9.707 1.095-1.566 5.321.939 5.949.939.01 0-1.72 7.52-2.97 8.77zm3.37-22.24c.031-.019.062-.03.096-.049l.002.049h-.1zM48.734 115.26l-.004-.254s-.022-.072-.067-.184c-.451-2.578-3.121-15.673-11.059-17.351-.769-.32-1.538-.396-2.293-.144-.021.008-.048.021-.07.029-.356.203-.68.385-.985.557-2.884 2.193-5.242 6.719-6.506 12.406 0 .141-.014.291-.016.434-1.396 6.188-2.45 16.34 2.253 25.472 1.63 3.59 3.755 6.237 6.113 7.39.075-.033.152-.062.229-.091 1.876.58 3.829-.151 5.264-.987.475-.177.934-.42 1.369-.779 5.73-4.746 6.946-16.314 5.825-26.377l-.053-.12zm-16.336 12.39c-.487-.78-.879-8.407-.292-9.582 0 0 2.834 2.152 3.031 3.031.194.879.587 2.737.587 2.737s-2.836 3.62-3.326 3.81zm9.513 9.41c-.354.117.234.822-.822 1.057-1.057.236-3.757-.352-3.992-1.76-.235-1.41-.117-8.807.47-9.982 0 0 .705-1.643 1.409.471.704 2.11 3.287 10.09 2.935 10.21zm2.818-10.22c-1.644.705-2.701-1.057-3.17-1.762a2.913 2.913 0 01-.295-.644 7.437 7.437 0 01-.75.853c-.382.016-.672.026-.91.022-.039.006-.073.015-.111.015-1.752.028-3.214-2.556-3.265-5.769-.037-2.271.643-4.24 1.662-5.216-.992-1.026-4.043-6.649-3.728-7.698 0 0 5.283-8.925 4.345-.822 0 4.705.066 7.128-.104 8.134.286-.164.59-.256.906-.263.816-.015 1.567.548 2.146 1.47.15-.779 2.023-10.357 2.925-9.457.938.938 2.113 7.162 1.057 8.104-.725.643-2.548 2.221-3.477 2.361.367.932.592 2.062.612 3.289.001.065 0 .131-.002.192a6.32 6.32 0 01-.002 1.666c1.39.013 4.16.123 4.16.826-.002.95-.355 4.01-1.999 4.71z"/></g></svg>